<mxfile host="app.diagrams.net" agent="Mozilla/5.0 (Windows NT 10.0; Win64; x64) AppleWebKit/537.36 (KHTML, like Gecko) Chrome/138.0.0.0 Safari/537.36" version="28.0.7">
  <diagram name="第 1 页" id="zxp06LZlIhffe6ZKKRls">
    <mxGraphModel dx="541" dy="322" grid="1" gridSize="10" guides="1" tooltips="1" connect="1" arrows="1" fold="1" page="1" pageScale="1" pageWidth="827" pageHeight="1169" math="0" shadow="0">
      <root>
        <mxCell id="0" />
        <mxCell id="1" parent="0" />
        <mxCell id="317_3yl7mG6RGYh0Us7i-49" value="" style="group;html=1;convertToSvg=1;" parent="1" vertex="1" connectable="0">
          <mxGeometry x="130" y="210" width="320" height="200" as="geometry" />
        </mxCell>
        <mxCell id="317_3yl7mG6RGYh0Us7i-7" value="" style="rounded=1;whiteSpace=wrap;html=1;strokeWidth=2;fontSize=12;" parent="317_3yl7mG6RGYh0Us7i-49" vertex="1">
          <mxGeometry x="137.21" width="182.79" height="200" as="geometry" />
        </mxCell>
        <mxCell id="317_3yl7mG6RGYh0Us7i-8" value="&lt;b&gt;SUNDB(Hot loading)&lt;/b&gt;" style="text;html=1;align=center;verticalAlign=middle;whiteSpace=wrap;rounded=0;" parent="317_3yl7mG6RGYh0Us7i-49" vertex="1">
          <mxGeometry x="162.62295081967213" width="132.13114754098356" height="27.272727272727273" as="geometry" />
        </mxCell>
        <mxCell id="317_3yl7mG6RGYh0Us7i-21" style="edgeStyle=orthogonalEdgeStyle;rounded=0;orthogonalLoop=1;jettySize=auto;html=1;exitX=0.5;exitY=1;exitDx=0;exitDy=0;entryX=0.5;entryY=0;entryDx=0;entryDy=0;endSize=4;startSize=3;" parent="317_3yl7mG6RGYh0Us7i-49" source="317_3yl7mG6RGYh0Us7i-9" target="317_3yl7mG6RGYh0Us7i-10" edge="1">
          <mxGeometry relative="1" as="geometry">
            <Array as="points">
              <mxPoint x="218.5245901639344" y="45.45454545454546" />
              <mxPoint x="218.5245901639344" y="54.54545454545455" />
              <mxPoint x="177.86885245901635" y="54.54545454545455" />
            </Array>
          </mxGeometry>
        </mxCell>
        <mxCell id="317_3yl7mG6RGYh0Us7i-22" style="edgeStyle=orthogonalEdgeStyle;rounded=0;orthogonalLoop=1;jettySize=auto;html=1;entryX=0.5;entryY=0;entryDx=0;entryDy=0;endSize=4;startSize=3;" parent="317_3yl7mG6RGYh0Us7i-49" target="317_3yl7mG6RGYh0Us7i-11" edge="1">
          <mxGeometry relative="1" as="geometry">
            <mxPoint x="217.50674473067917" y="45.45454545454546" as="sourcePoint" />
            <mxPoint x="254.067868852459" y="63.63636363636363" as="targetPoint" />
            <Array as="points">
              <mxPoint x="218" y="55" />
              <mxPoint x="260" y="55" />
              <mxPoint x="260" y="71" />
            </Array>
          </mxGeometry>
        </mxCell>
        <mxCell id="317_3yl7mG6RGYh0Us7i-9" value="&lt;font style=&quot;font-size: 9px;&quot;&gt;Startup stage controller&lt;/font&gt;" style="rounded=1;whiteSpace=wrap;html=1;" parent="317_3yl7mG6RGYh0Us7i-49" vertex="1">
          <mxGeometry x="167.07475409836061" y="27.272727272727273" width="113.07377049180324" height="18.181818181818183" as="geometry" />
        </mxCell>
        <mxCell id="317_3yl7mG6RGYh0Us7i-23" style="edgeStyle=orthogonalEdgeStyle;rounded=0;orthogonalLoop=1;jettySize=auto;html=1;entryX=0.5;entryY=0;entryDx=0;entryDy=0;endSize=4;" parent="317_3yl7mG6RGYh0Us7i-49" source="317_3yl7mG6RGYh0Us7i-10" target="317_3yl7mG6RGYh0Us7i-13" edge="1">
          <mxGeometry relative="1" as="geometry" />
        </mxCell>
        <mxCell id="317_3yl7mG6RGYh0Us7i-10" value="&lt;font style=&quot;font-size: 9px;&quot;&gt;Memory mode&lt;/font&gt;" style="rounded=1;whiteSpace=wrap;html=1;fontSize=10;" parent="317_3yl7mG6RGYh0Us7i-49" vertex="1">
          <mxGeometry x="147.37704918032782" y="71.04636363636364" width="60.983606557377044" height="18.181818181818183" as="geometry" />
        </mxCell>
        <mxCell id="317_3yl7mG6RGYh0Us7i-28" style="edgeStyle=orthogonalEdgeStyle;rounded=0;orthogonalLoop=1;jettySize=auto;html=1;exitX=0.5;exitY=1;exitDx=0;exitDy=0;entryX=0.5;entryY=0;entryDx=0;entryDy=0;endSize=4;" parent="317_3yl7mG6RGYh0Us7i-49" source="317_3yl7mG6RGYh0Us7i-11" target="317_3yl7mG6RGYh0Us7i-16" edge="1">
          <mxGeometry relative="1" as="geometry" />
        </mxCell>
        <mxCell id="317_3yl7mG6RGYh0Us7i-11" value="&lt;font style=&quot;font-size: 9px;&quot;&gt;Disk mode&lt;/font&gt;" style="rounded=1;whiteSpace=wrap;html=1;fontSize=10;" parent="317_3yl7mG6RGYh0Us7i-49" vertex="1">
          <mxGeometry x="228.68852459016387" y="71.04636363636364" width="60.983606557377044" height="18.181818181818183" as="geometry" />
        </mxCell>
        <mxCell id="317_3yl7mG6RGYh0Us7i-24" style="edgeStyle=orthogonalEdgeStyle;rounded=0;orthogonalLoop=1;jettySize=auto;html=1;exitX=0.5;exitY=1;exitDx=0;exitDy=0;endSize=4;" parent="317_3yl7mG6RGYh0Us7i-49" source="317_3yl7mG6RGYh0Us7i-13" target="317_3yl7mG6RGYh0Us7i-14" edge="1">
          <mxGeometry relative="1" as="geometry" />
        </mxCell>
        <mxCell id="317_3yl7mG6RGYh0Us7i-13" value="&lt;font style=&quot;font-size: 9px;&quot;&gt;Priority loading&lt;/font&gt;" style="rounded=1;whiteSpace=wrap;html=1;fontSize=10;" parent="317_3yl7mG6RGYh0Us7i-49" vertex="1">
          <mxGeometry x="147.38" y="110" width="62.62" height="18.18" as="geometry" />
        </mxCell>
        <mxCell id="317_3yl7mG6RGYh0Us7i-25" style="edgeStyle=orthogonalEdgeStyle;rounded=0;orthogonalLoop=1;jettySize=auto;html=1;exitX=0.5;exitY=1;exitDx=0;exitDy=0;entryX=0;entryY=0.5;entryDx=0;entryDy=0;endSize=4;" parent="317_3yl7mG6RGYh0Us7i-49" source="317_3yl7mG6RGYh0Us7i-14" target="317_3yl7mG6RGYh0Us7i-15" edge="1">
          <mxGeometry relative="1" as="geometry">
            <Array as="points">
              <mxPoint x="178" y="173" />
              <mxPoint x="228" y="173" />
            </Array>
          </mxGeometry>
        </mxCell>
        <mxCell id="317_3yl7mG6RGYh0Us7i-14" value="&lt;font style=&quot;font-size: 9px;&quot;&gt;Full loading&lt;/font&gt;" style="rounded=1;whiteSpace=wrap;html=1;fontSize=10;" parent="317_3yl7mG6RGYh0Us7i-49" vertex="1">
          <mxGeometry x="147.37704918032782" y="145.45363636363638" width="60.983606557377044" height="18.181818181818183" as="geometry" />
        </mxCell>
        <mxCell id="317_3yl7mG6RGYh0Us7i-15" value="&lt;font style=&quot;font-size: 9px;&quot;&gt;Periodic dumping&lt;/font&gt;" style="rounded=1;whiteSpace=wrap;html=1;fontSize=10;" parent="317_3yl7mG6RGYh0Us7i-49" vertex="1">
          <mxGeometry x="228.69" y="163.64" width="81.31" height="18.18" as="geometry" />
        </mxCell>
        <mxCell id="317_3yl7mG6RGYh0Us7i-16" value="&lt;font style=&quot;font-size: 9px;&quot;&gt;Load the dump file&lt;/font&gt;" style="rounded=1;whiteSpace=wrap;html=1;fontSize=10;" parent="317_3yl7mG6RGYh0Us7i-49" vertex="1">
          <mxGeometry x="223.61" y="110" width="86.39" height="18.18" as="geometry" />
        </mxCell>
        <mxCell id="317_3yl7mG6RGYh0Us7i-31" value="" style="rounded=1;whiteSpace=wrap;html=1;movable=1;resizable=1;rotatable=1;deletable=1;editable=1;locked=0;connectable=1;" parent="317_3yl7mG6RGYh0Us7i-49" vertex="1">
          <mxGeometry x="5.081967213114754" y="118.18181818181819" width="91.47540983606555" height="63.63636363636363" as="geometry" />
        </mxCell>
        <mxCell id="317_3yl7mG6RGYh0Us7i-30" value="" style="verticalLabelPosition=bottom;shadow=0;dashed=0;align=center;html=1;verticalAlign=top;strokeWidth=1;shape=mxgraph.mockup.graphics.lineChart;strokeColor=#82b366;strokeColor2=#000000;strokeColor3=#008CFF;strokeColor4=#9AC7BF;fillColor=#d5e8d4;" parent="317_3yl7mG6RGYh0Us7i-49" vertex="1">
          <mxGeometry x="17.786885245901637" y="145.45454545454547" width="66.06557377049178" height="31.818181818181817" as="geometry" />
        </mxCell>
        <mxCell id="317_3yl7mG6RGYh0Us7i-32" value="" style="endArrow=classic;html=1;rounded=0;" parent="317_3yl7mG6RGYh0Us7i-49" edge="1">
          <mxGeometry width="50" height="50" relative="1" as="geometry">
            <mxPoint x="137.21311475409834" y="145.45454545454547" as="sourcePoint" />
            <mxPoint x="98.59016393442622" y="145.45454545454547" as="targetPoint" />
            <Array as="points" />
          </mxGeometry>
        </mxCell>
        <mxCell id="317_3yl7mG6RGYh0Us7i-33" value="&lt;font style=&quot;font-size: 10px;&quot;&gt;Performance and Monitoring&lt;/font&gt;" style="text;html=1;align=center;verticalAlign=middle;whiteSpace=wrap;rounded=0;fontStyle=1" parent="317_3yl7mG6RGYh0Us7i-49" vertex="1">
          <mxGeometry y="118.18181818181819" width="101.63934426229505" height="27.272727272727273" as="geometry" />
        </mxCell>
        <mxCell id="317_3yl7mG6RGYh0Us7i-34" value="" style="rounded=1;whiteSpace=wrap;html=1;movable=1;resizable=1;rotatable=1;deletable=1;editable=1;locked=0;connectable=1;" parent="317_3yl7mG6RGYh0Us7i-49" vertex="1">
          <mxGeometry x="5.081967213114754" y="9.090909090909092" width="91.47540983606555" height="63.63636363636363" as="geometry" />
        </mxCell>
        <mxCell id="317_3yl7mG6RGYh0Us7i-35" value="" style="endArrow=classic;html=1;rounded=0;entryX=-0.012;entryY=0.155;entryDx=0;entryDy=0;entryPerimeter=0;exitX=1.022;exitY=0.343;exitDx=0;exitDy=0;exitPerimeter=0;" parent="317_3yl7mG6RGYh0Us7i-49" source="317_3yl7mG6RGYh0Us7i-34" target="317_3yl7mG6RGYh0Us7i-7" edge="1">
          <mxGeometry width="50" height="50" relative="1" as="geometry">
            <mxPoint x="155.50819672131144" y="145.45454545454547" as="sourcePoint" />
            <mxPoint x="116.88524590163932" y="145.45454545454547" as="targetPoint" />
            <Array as="points" />
          </mxGeometry>
        </mxCell>
        <mxCell id="317_3yl7mG6RGYh0Us7i-36" value="&lt;font style=&quot;font-size: 10px;&quot;&gt;Configuration and Central Control&lt;/font&gt;" style="text;html=1;align=center;verticalAlign=middle;whiteSpace=wrap;rounded=0;fontStyle=1" parent="317_3yl7mG6RGYh0Us7i-49" vertex="1">
          <mxGeometry y="9.090909090909092" width="101.63934426229505" height="27.272727272727273" as="geometry" />
        </mxCell>
        <mxCell id="317_3yl7mG6RGYh0Us7i-48" value="" style="shape=image;imageAspect=0;aspect=fixed;verticalLabelPosition=bottom;verticalAlign=top;image=data:image/svg+xml,PD94bWwgdmVyc2lvbj0iMS4wIiBzdGFuZGFsb25lPSJubyI/PjwhRE9DVFlQRSBzdmcgUFVCTElDICItLy9XM0MvL0RURCBTVkcgMS4xLy9FTiIgImh0dHA6Ly93d3cudzMub3JnL0dyYXBoaWNzL1NWRy8xLjEvRFREL3N2ZzExLmR0ZCI+PHN2ZyB0PSIxNzUzNjkzNjk3ODk5IiBjbGFzcz0iaWNvbiIgdmlld0JveD0iMCAwIDEwMjQgMTAyNCIgdmVyc2lvbj0iMS4xIiB4bWxucz0iaHR0cDovL3d3dy53My5vcmcvMjAwMC9zdmciIHAtaWQ9IjY2NzAiIHhtbG5zOnhsaW5rPSJodHRwOi8vd3d3LnczLm9yZy8xOTk5L3hsaW5rIiB3aWR0aD0iMjAwIiBoZWlnaHQ9IjIwMCI+PHBhdGggZD0iTTEyNy42NSAxNDMuNTFoNzUzLjg0djUwMi4yNkgxMjcuNjV6IiBmaWxsPSIjMkI0RkVGIiBwLWlkPSI2NjcxIj48L3BhdGg+PHBhdGggZD0iTTU4MC4xMiA3NjIuNjFsNDM0LjgxLTAuMTNWOS41NGgtMTAwNFY3NjNoNDM1LjM2IiBmaWxsPSIjMkI0RkVGIiBwLWlkPSI2NjcyIj48L3BhdGg+PHBhdGggZD0iTTQ0Ni4yOSA3NjN2MTI5LjY5YTUwMi4wOSA1MDIuMDkgMCAwIDAtMTg0LjE0IDU5djYyLjc3SDc2NC40Vjk1MS4zYTUwMy42NzUgNTAzLjY3NSAwIDAgMC0xODQuMjctNTkuMDFWNzYyLjYxIiBmaWxsPSIjODVBQUZCIiBwLWlkPSI2NjczIj48L3BhdGg+PHBhdGggZD0iTTc3Ljg2IDc2LjQ3aDg3MC42OXY2MTkuNDlINzcuODZ6IiBmaWxsPSIjQ0NFNUZGIiBwLWlkPSI2Njc0Ij48L3BhdGg+PHBhdGggZD0iTTEyNS4wMiAxMTguNzJoNzc3LjUyVjY1MC44SDEyNS4wMnoiIGZpbGw9IiMyQjRGRUYiIHAtaWQ9IjY2NzUiPjwvcGF0aD48cGF0aCBkPSJNNjY1LjYzIDM0OS40OWgtMjIuNDVhOC45MzIgOC45MzIgMCAwIDEtOC45NC02Ljg5IDEzMC45OTkgMTMwLjk5OSAwIDAgMC0xNC4yMi0zNC4yNCA4LjkyNSA4LjkyNSAwIDAgMSAxLjI2LTExbDE1LjkyLTE1LjkyYzMuNDYtMy40OSAzLjQ2LTkuMTIgMC0xMi42bC0yNS4yMi0yNS4zMWMtMy40OS0zLjQ2LTkuMTItMy40Ni0xMi42IDBsLTE1LjczIDE1LjkyYy0yLjkzIDIuOTItNy40OCAzLjQyLTExIDEuMjZhMTMxLjM0IDEzMS4zNCAwIDAgMC0zNC4yNC0xNC4yMmMtNC4xMy0wLjk3LTctNC43MS02Ljg5LTguOTR2LTIyLjE3YzAtMi4zNy0wLjk0LTQuNjUtMi42MS02LjMycy0zLjk2LTIuNjEtNi4zMi0yLjYxaC0zNS43N2MtNC45NCAwLTguOTQgNC04Ljk0IDguOTR2MjIuNDVhOC45MzIgOC45MzIgMCAwIDEtNi44OSA4Ljk0IDEzMi4wNSAxMzIuMDUgMCAwIDAtMzQuMjQgMTMuOTQgOC45MjUgOC45MjUgMCAwIDEtMTEtMS4yNmwtMTUuOTItMTUuOTJjLTMuNDktMy40Ni05LjEyLTMuNDYtMTIuNiAwbC0yNS4zMSAyNS40OGMtMy40NiAzLjQ5LTMuNDYgOS4xMiAwIDEyLjZsMTUuOTIgMTUuOTJjMi45MiAyLjkzIDMuNDIgNy40OCAxLjI2IDExYTEzMS4zNCAxMzEuMzQgMCAwIDAtMTQuMjIgMzQuMjRjLTAuOTcgNC4xMy00LjcxIDctOC45NCA2Ljg5aC0yMi4xN2MtNC45NCAwLTguOTQgNC04Ljk0IDguOTV2MzUuNzdjMCAyLjM3IDAuOTQgNC42NSAyLjYxIDYuMzJhOC45NjQgOC45NjQgMCAwIDAgNi4zMiAyLjYxaDIyLjQ1YTguOTMyIDguOTMyIDAgMCAxIDguOTQgNi44OSAxMzEuNjMgMTMxLjYzIDAgMCAwIDEzLjk0IDM0LjA3IDguOTIyIDguOTIyIDAgMCAxLTEuMjYgMTFsLTE1LjkyIDE1LjkyYy0zLjQ2IDMuNDktMy40NiA5LjEyIDAgMTIuNmwyNS40OCAyNS4zMWMzLjQ5IDMuNDYgOS4xMiAzLjQ2IDEyLjYgMGwxNS45Mi0xNS45MmMyLjkzLTIuOTIgNy40OC0zLjQyIDExLTEuMjZhMTMxLjM0IDEzMS4zNCAwIDAgMCAzNC4yNCAxNC4yMmM0LjEzIDAuOTcgNyA0LjcxIDYuODkgOC45NHYyMi4xN2MwIDIuMzcgMC45NCA0LjY1IDIuNjEgNi4zMmE4Ljk2NCA4Ljk2NCAwIDAgMCA2LjMyIDIuNjFoMzUuNzdjMi4zNyAwIDQuNjUtMC45NCA2LjMyLTIuNjFhOC45NjQgOC45NjQgMCAwIDAgMi42MS02LjMydi0yMi40NWE4LjkzMiA4LjkzMiAwIDAgMSA2Ljg5LTguOTRjMTIuMDItMy4wOSAyMy41Ni03Ljg4IDM0LjI0LTE0LjIyYTguOTI1IDguOTI1IDAgMCAxIDExIDEuMjZsMTUuOTIgMTUuOTJjMy40OSAzLjQ2IDkuMTIgMy40NiAxMi42IDBsMjUuMTMtMjUuMjJjMy40Ni0zLjQ5IDMuNDYtOS4xMiAwLTEyLjZsLTE1LjkyLTE1LjkxYy0yLjkyLTIuOTQtMy40Mi03LjQ4LTEuMjYtMTFhMTMxLjM0IDEzMS4zNCAwIDAgMCAxNC4yMi0zNC4yNGMwLjk3LTQuMTMgNC43MS03IDguOTQtNi44OWgyMi4xN2MyLjM3IDAgNC42NS0wLjk0IDYuMzItMi42MWE4Ljk2NCA4Ljk2NCAwIDAgMCAyLjYxLTYuMzJ2LTM1LjU4YzAtMi4zNy0wLjk0LTQuNjUtMi42MS02LjMyYTguODIyIDguODIyIDAgMCAwLTYuMjktMi42NXpNNTA0LjY4IDQ2NS43NGMtNDkuMzggMC04OS40MS00MC4wMy04OS40MS04OS40MXM0MC4wMy04OS40MSA4OS40MS04OS40MWM0OS4zOCAwIDg5LjQxIDQwLjAzIDg5LjQxIDg5LjQxcy00MC4wMyA4OS40MS04OS40MSA4OS40MXoiIGZpbGw9IiNGRkZGRkYiIHAtaWQ9IjY2NzYiPjwvcGF0aD48cGF0aCBkPSJNNDMzLjE1IDM3Ni4zMWMwIDM5LjUxIDMyLjAzIDcxLjUzIDcxLjUzIDcxLjUzIDM5LjUxIDAgNzEuNTMtMzIuMDMgNzEuNTMtNzEuNTMgMC0zOS41MS0zMi4wMy03MS41My03MS41My03MS41My0zOS41MSAwLTcxLjUzIDMyLjAyLTcxLjUzIDcxLjUzeiIgZmlsbD0iI0ZGRkZGRiIgcC1pZD0iNjY3NyI+PC9wYXRoPjwvc3ZnPg==;" parent="317_3yl7mG6RGYh0Us7i-49" vertex="1">
          <mxGeometry x="35.57" y="40" width="31.05" height="31.05" as="geometry" />
        </mxCell>
        <mxCell id="317_3yl7mG6RGYh0Us7i-53" style="edgeStyle=orthogonalEdgeStyle;rounded=0;orthogonalLoop=1;jettySize=auto;html=1;exitX=0.5;exitY=1;exitDx=0;exitDy=0;entryX=0.633;entryY=0.099;entryDx=0;entryDy=0;entryPerimeter=0;endSize=4;startSize=4;" parent="317_3yl7mG6RGYh0Us7i-49" source="317_3yl7mG6RGYh0Us7i-16" target="317_3yl7mG6RGYh0Us7i-15" edge="1">
          <mxGeometry relative="1" as="geometry" />
        </mxCell>
      </root>
    </mxGraphModel>
  </diagram>
</mxfile>
